<?xml version="1.0" encoding="utf-8"?>
<!-- Generator: Adobe Illustrator 26.4.1, SVG Export Plug-In . SVG Version: 6.00 Build 0)  -->
<svg version="1.1" id="Layer_1" xmlns="http://www.w3.org/2000/svg" xmlns:xlink="http://www.w3.org/1999/xlink" x="0px" y="0px"
	 viewBox="0 0 400 190.4" style="enable-background:new 0 0 400 190.4;" xml:space="preserve">
<style type="text/css">
	.st0{fill:none;stroke:#000000;stroke-width:3.6167;stroke-linecap:round;stroke-linejoin:round;stroke-miterlimit:10;}
	.st1{fill:none;stroke:#000DFF;stroke-width:5;stroke-linecap:round;stroke-linejoin:round;stroke-miterlimit:10;}
</style>
<g id="surface1">
	<path class="st0" d="M71.8,181.1V8.8"/>
	<path class="st0" d="M129.2,181.1V8.8"/>
	<path class="st0" d="M14.4,123.6h172.2"/>
	<path class="st0" d="M14.4,66.2h172.2"/>
	<path class="st0" d="M270.8,181.1V8.8"/>
	<path class="st0" d="M328.2,181.1V8.8"/>
	<path class="st0" d="M213.3,123.6h172.2"/>
	<path class="st0" d="M213.3,66.2h172.2"/>
	<path class="st0" d="M261.7,152.7c0-11.1-9-20.1-20.1-20.1c-11.1,0-20.1,9-20.1,20.1c0,11.1,9,20.1,20.1,20.1
		C252.7,172.8,261.7,163.8,261.7,152.7c0-0.7,0-1.3-0.1-2"/>
	<path class="st0" d="M222,17.4l40.2,40.2"/>
	<path class="st0" d="M262.1,17.4L222,57.6"/>
	<path class="st0" d="M262.1,75L222,115.2"/>
	<path class="st0" d="M377.8,36.8c0-11.1-9-20.1-20.1-20.1c-11.1,0-20.1,9-20.1,20.1s9,20.1,20.1,20.1
		C368.8,56.9,377.8,47.9,377.8,36.8c0-0.7,0-1.3-0.1-2"/>
	<path class="st0" d="M224,74.9l40.2,40.2"/>
	<path class="st0" d="M319.6,74.9L279.4,115"/>
	<path class="st0" d="M336.8,132.3l40.2,40.2"/>
	<path class="st0" d="M377,132.3l-40.2,40.2"/>
	<path class="st0" d="M319.6,94.8c0-11.1-9-20.1-20.1-20.1c-11.1,0-20.1,9-20.1,20.1s9,20.1,20.1,20.1
		C310.6,114.8,319.6,105.8,319.6,94.8c0-0.7,0-1.3-0.1-2"/>
	<path class="st1" d="M213.3,181.1L385.6,8.8"/>
</g>
</svg>
